<?xml version="1.0" encoding="UTF-8" standalone="no" ?>
<!DOCTYPE svg PUBLIC "-//W3C//DTD SVG 1.1//EN" "http://www.w3.org/Graphics/SVG/1.1/DTD/svg11.dtd">
<svg xmlns="http://www.w3.org/2000/svg" xmlns:xlink="http://www.w3.org/1999/xlink" version="1.1" width="179" height="73" viewBox="0 0 179 73" xml:space="preserve">
<desc>Created with Fabric.js 3.6.3</desc>
<defs>
</defs>
<g transform="matrix(1 0 0 1 36.02 36.77)"  >
<path style="stroke: none; stroke-width: 0.5; stroke-dasharray: none; stroke-linecap: butt; stroke-dashoffset: 0; stroke-linejoin: miter; stroke-miterlimit: 4; fill: rgb(255,255,255); fill-rule: nonzero; opacity: 0.97;"  transform=" translate(-47.51, -44.23)" d="M 23.871918 60.255018 C 20.483991 59.130975 17.988011 57.61184 15.84436 55.369185 C 12.772231 52.155171 12.034423 50.352221 11.788054 45.456967 C 11.37169 37.183952 13.652283 33.182633 20.78123 29.678366 c 4.447541 -2.186209 7.68953 -2.508586 11.29666 -1.123314 c 3.581899 1.375581 7.110738 4.011095 8.811174 6.580628 l 1.366048 2.064238 l -3.223617 2.955914 c -5.83938 5.354454 -6.131918 5.481924 -13.419474 5.847372 c -6.26281 0.31406 -7.956748 0.784413 -7.956748 2.209341 c 0 1.060139 3.622589 4.863054 5.300155 5.563985 c 2.387342 0.997495 6.462695 0.855618 8.84111 -0.307789 c 1.112107 -0.543991 6.274198 -4.852982 11.471314 -9.575536 c 14.917975 -13.55578 18.528005 -15.977217 23.882377 -16.019171 c 5.493291 -0.04304 12.172112 4.31863 14.783531 9.654537 c 0.771083 1.575548 1.161488 3.435695 1.291769 6.154849 c 0.175394 3.660761 0.07733 4.118192 -1.618332 7.54913 c -1.382672 2.797644 -2.373063 4.069212 -4.232576 5.434222 c -3.549336 2.605452 -6.812239 3.899743 -9.976979 3.957553 l -2.74453 0.05013 l -0.153158 -2.400965 c -0.196879 -3.086261 0.43507 -3.813598 3.322374 -3.823862 c 8.0815 -0.02873 12.512272 -10.585951 7.128249 -16.984497 c -2.72118 -3.233941 -7.896557 -4.295223 -11.756775 -2.410887 c -1.112103 0.542867 -4.931402 3.588177 -8.487323 6.767355 c -17.935888 16.035617 -21.355344 18.49585 -26.249994 18.88637 c -1.427382 0.113884 -3.490437 -0.08995 -4.584567 -0.452955 z m 6.854284 -19.39692 c 2.968212 -1.240981 3.778242 -4.926172 1.351688 -6.149436 c -0.683831 -0.34473 -2.832295 -0.630081 -4.774365 -0.634114 c -3.104686 -0.0064 -3.76523 0.164026 -5.470648 1.411855 c -3.989648 2.919169 -4.915554 5.044137 -2.436943 5.592824 c 2.742915 0.607195 9.672537 0.471953 11.330268 -0.221129 z" stroke-linecap="round" />
</g>
<g transform="matrix(1 0 0 1 95.88 46.83)"  >
<path style="stroke: none; stroke-width: 0.5; stroke-dasharray: none; stroke-linecap: butt; stroke-dashoffset: 0; stroke-linejoin: miter; stroke-miterlimit: 4; fill: rgb(255,255,255); fill-rule: nonzero; opacity: 0.97;"  transform=" translate(-107.37, -54.29)" d="m 91.3347 60.30146 l 0.17432 -20.51493 l 1.425617 -2.903349 c 1.082566 -2.204706 2.132737 -3.423902 4.364201 -5.066611 c 5.982302 -4.40392 10.859672 -5.161454 16.526932 -2.566896 c 6.17794 2.828355 9.76005 8.194191 9.76075 14.621186 c 0.00074 6.882816 -3.22002 12.155994 -9.23261 15.115979 c -2.98759 1.470786 -3.46483 1.560644 -6.81213 1.28265 c -1.97971 -0.164415 -5.04259 -0.748927 -6.80641 -1.298914 c -1.763821 -0.549987 -3.330416 -0.876708 -3.481324 -0.726048 c -0.150908 0.150661 -0.35191 5.290964 -0.44667 11.422896 L 96.635084 80.81639 H 93.897732 H 91.16038 Z m 20.21825 -6.788312 c 6.75523 -3.446265 8.51515 -11.208321 3.73977 -16.494102 c -4.78441 -5.295768 -13.774 -3.941337 -17.099023 2.576251 c -1.776355 3.481943 -1.011079 8.897309 1.669364 11.813014 c 2.673989 2.908691 8.173289 3.898872 11.689889 2.104837 z" stroke-linecap="round" />
</g>
<g transform="matrix(1 0 0 1 136.24 36.55)"  >
<path style="stroke: none; stroke-width: 0.5; stroke-dasharray: none; stroke-linecap: butt; stroke-dashoffset: 0; stroke-linejoin: miter; stroke-miterlimit: 4; fill: rgb(255,255,255); fill-rule: nonzero; opacity: 0.97;"  transform=" translate(-147.74, -44.01)" d="m 143.25761 59.631495 c -4.63727 -1.479598 -8.42676 -4.821305 -10.37448 -9.148598 c -0.73538 -1.633813 -1.0138 -3.320668 -1.02672 -6.220382 c -0.0151 -3.382433 0.19584 -4.42118 1.40734 -6.93169 c 1.73073 -3.586507 4.67536 -6.631198 7.9914 -8.262983 c 3.61448 -1.778636 9.32514 -1.73477 13.2436 0.10173 c 3.31936 1.555716 6.37438 4.538699 7.97376 7.785742 c 0.96901 1.967257 1.1496 3.115139 1.1496 7.307201 c 0 4.575726 -0.11715 5.184789 -1.46534 7.61855 c -0.80594 1.454878 -2.25042 3.334542 -3.20996 4.177032 c -4.17756 3.667944 -10.72153 5.158411 -15.6892 3.573398 z m 9.64416 -6.293742 c 1.16494 -0.616034 2.82268 -2.092753 3.68388 -3.281598 c 1.41651 -1.95544 1.56581 -2.508431 1.56581 -5.799741 c 0 -3.234323 -0.16597 -3.877599 -1.49507 -5.794704 c -1.78922 -2.58077 -5.94916 -4.891825 -8.80538 -4.891825 c -7.17701 0 -12.32693 7.70583 -9.56643 14.314258 c 2.36484 5.661269 9.31848 8.255638 14.61719 5.45361 z" stroke-linecap="round" />
</g>
<g transform="matrix(1 0 0 1 169.76 26.83)"  >
<path style="stroke: none; stroke-width: 0.5; stroke-dasharray: none; stroke-linecap: butt; stroke-dashoffset: 0; stroke-linejoin: miter; stroke-miterlimit: 4; fill: rgb(255,255,255); fill-rule: nonzero; opacity: 0.97;"  transform=" translate(-181.25, -34.29)" d="m 186.38483 60.398907 c -5.42346 -1.070416 -10.56482 -5.111252 -12.84762 -10.097555 c -1.56083 -3.409298 -2.1888 -11.915019 -2.19909 -29.786422 l -0.007 -12.8062897 h 3.23265 h 3.23266 V 27.426351 V 47.144063 l 1.75397 2.140496 c 2.46136 3.003761 4.07306 4.020169 8.00244 5.046675 l 3.42288 0.89419 l 0.15166 2.353439 c 0.13819 2.144409 0.0359 2.397437 -1.15138 2.84885 c -0.71666 0.272478 -1.34441 0.470893 -1.39499 0.440919 c -0.0506 -0.02999 -1.03869 -0.241345 -2.19581 -0.469725 z" stroke-linecap="round" />
</g>
</svg>